<svg xmlns="http://www.w3.org/2000/svg" width="1129.62" height="187.6" viewBox="0 0 1129.62 187.6"><path d="M187.064,0H129.98L64.052-74.5V0H20.368V-187.6H64.052v73.432l61.64-73.432h54.136l-79.06,91.924Zm140.7,0L313.828-33.768h-92.46L207.432,0h-46.9l84.152-187.6h46.9L375.2,0ZM268-145.524,237.18-71.556h61.1ZM483.472-187.6H531.98L454.8,0H408.432L331.248-187.6h48.508l25.192,63.784,26.532,72.9,27.068-72.9Zm46.632,0h43.952V0H530.1Zm187.868,0h43.684V0h-39.4L637.3-116.044l.536,50.652V0H594.156V-187.6h39.4L718.508-71.02l-.536-50.116Zm140.432,0q28.944,0,50.786,11.524a81.379,81.379,0,0,1,33.768,32.83Q954.884-121.94,954.884-93.8T942.958-44.354a81.379,81.379,0,0,1-33.768,32.83Q887.348,0,858.4,0H781.488V-187.6Zm0,149.276q23.584,0,38.056-15.008T910.932-93.8q0-16.884-6.566-29.346a46.969,46.969,0,0,0-18.492-19.3q-11.926-6.834-27.47-6.834H825.44V-38.324ZM1102.552,0l-13.936-33.768h-92.46L982.22,0h-46.9l84.152-187.6h46.9L1149.988,0Zm-59.764-145.524-30.82,73.968h61.1Z" transform="translate(-20.368 187.6)"/></svg>