<svg xmlns="http://www.w3.org/2000/svg" viewBox="0 0 624.948 618.59"><g transform="translate(-3161.376 -511.06)"><line x1="16.9" y1="15.85" transform="translate(3172.29 998.08)" fill="none" stroke="#d8ebff" stroke-linecap="round" stroke-linejoin="round" stroke-width="5"/><line y1="16.9" x2="15.85" transform="translate(3172.81 997.56)" fill="none" stroke="#d8ebff" stroke-linecap="round" stroke-linejoin="round" stroke-width="5"/><line x1="16.9" y1="15.85" transform="translate(3164.91 595.99)" fill="none" stroke="#d8ebff" stroke-linecap="round" stroke-linejoin="round" stroke-width="5"/><line y1="16.9" x2="15.86" transform="translate(3165.43 595.47)" fill="none" stroke="#d8ebff" stroke-linecap="round" stroke-linejoin="round" stroke-width="5"/><line x1="16.9" y1="15.85" transform="translate(3765.89 618.71)" fill="none" stroke="#d8ebff" stroke-linecap="round" stroke-linejoin="round" stroke-width="5"/><line y1="16.9" x2="15.85" transform="translate(3766.41 618.19)" fill="none" stroke="#d8ebff" stroke-linecap="round" stroke-linejoin="round" stroke-width="5"/><path d="M133.87,57.17l6-22.46-22.43,6.04L94.99,46.78l16.44,16.41,16.44,16.43Z" transform="translate(3156.5 509.5)" fill="none" stroke="#d8ebff" stroke-linecap="round" stroke-linejoin="round" stroke-width="5"/><path d="M117.96,542.35l6-22.45-22.44,6.03-22.45,6.03,16.45,16.42,16.44,16.42Z" transform="translate(3156.5 509.5)" fill="none" stroke="#d8ebff" stroke-linecap="round" stroke-linejoin="round" stroke-width="5"/><path d="M539.58,82.25,559.7,70.62l-20.13-11.6L519.43,47.41l.02,23.23.01,23.25Z" transform="translate(3156.5 509.5)" fill="none" stroke="#d8ebff" stroke-linecap="round" stroke-linejoin="round" stroke-width="5"/><path d="M305.92,600a17.64,17.64,0,1,1-17.633-17.63A17.64,17.64,0,0,1,305.92,600Z" transform="translate(3156.5 509.5)" fill="none" stroke="#d8ebff" stroke-linecap="round" stroke-linejoin="round" stroke-width="5"/><path d="M353.07,573.62a17.64,17.64,0,0,1,35.27,0" transform="translate(3156.5 509.5)" fill="none" stroke="#d8ebff" stroke-linecap="round" stroke-linejoin="round" stroke-width="5"/><path d="M46.73,599.89a17.55,17.55,0,1,1,0-35.1" transform="translate(3156.5 509.5)" fill="none" stroke="#d8ebff" stroke-linecap="round" stroke-linejoin="round" stroke-width="5"/><path d="M235.93,39.16a17.55,17.55,0,1,1,0-35.1" transform="translate(3156.5 509.5)" fill="none" stroke="#d8ebff" stroke-linecap="round" stroke-linejoin="round" stroke-width="5"/><path d="M599.25,434.59A17.63,17.63,0,1,1,581.62,417,17.63,17.63,0,0,1,599.25,434.59Z" transform="translate(3156.5 509.5)" fill="none" stroke="#d8ebff" stroke-linecap="round" stroke-linejoin="round" stroke-width="5"/><rect width="35.07" height="35.07" transform="translate(3383.655 691.31)" fill="none" stroke="#d8ebff" stroke-linecap="round" stroke-linejoin="round" stroke-width="5"/><path d="M490.28,249c-7.66,0-6.34-13.58-16.1-13.58" transform="translate(3156.5 509.5)" fill="none" stroke="#d8ebff" stroke-linecap="round" stroke-linejoin="round" stroke-width="5"/><path d="M522.49,249c-7.65,0-6.33-13.58-16.1-13.58" transform="translate(3156.5 509.5)" fill="none" stroke="#d8ebff" stroke-linecap="round" stroke-linejoin="round" stroke-width="5"/><path d="M490.28,249c7.66,0,6.34-13.58,16.11-13.58" transform="translate(3156.5 509.5)" fill="none" stroke="#d8ebff" stroke-linecap="round" stroke-linejoin="round" stroke-width="5"/><path d="M522.49,249c7.66,0,6.34-13.58,16.11-13.58" transform="translate(3156.5 509.5)" fill="none" stroke="#d8ebff" stroke-linecap="round" stroke-linejoin="round" stroke-width="5"/><path d="M357.27,50.82c0,7.65-13.58,6.33-13.58,16.1" transform="translate(3156.5 509.5)" fill="none" stroke="#d8ebff" stroke-linecap="round" stroke-linejoin="round" stroke-width="5"/><path d="M526.22,488.46c0,7.65-13.58,6.33-13.58,16.1" transform="translate(3156.5 509.5)" fill="none" stroke="#d8ebff" stroke-linecap="round" stroke-linejoin="round" stroke-width="5"/><line x2="39.74" transform="translate(3709.32 517.06)" fill="none" stroke="#d8ebff" stroke-linecap="round" stroke-linejoin="round" stroke-width="5"/><line x2="39.74" transform="translate(3317.44 1109.39)" fill="none" stroke="#d8ebff" stroke-linecap="round" stroke-linejoin="round" stroke-width="5"/><line y1="28.1" x2="28.1" transform="translate(3186.86 517.06)" fill="none" stroke="#d8ebff" stroke-linecap="round" stroke-linejoin="round" stroke-width="5"/><line y1="28.1" x2="28.1" transform="translate(3729.19 805.14)" fill="none" stroke="#d8ebff" stroke-linecap="round" stroke-linejoin="round" stroke-width="5"/><path d="M512.49,136.59a6.94,6.94,0,1,1,2.18-9.57A6.94,6.94,0,0,1,512.49,136.59Z" transform="translate(3156.5 509.5)" fill="none" stroke="#d8ebff" stroke-linecap="round" stroke-linejoin="round" stroke-width="5"/><path d="M610.6,384a6.95,6.95,0,1,1,2.17-9.58A6.95,6.95,0,0,1,610.6,384Z" transform="translate(3156.5 509.5)" fill="none" stroke="#d8ebff" stroke-linecap="round" stroke-linejoin="round" stroke-width="5"/></g></svg>