<?xml version="1.0" standalone="no"?>
<!DOCTYPE svg PUBLIC "-//W3C//DTD SVG 20010904//EN"
 "http://www.w3.org/TR/2001/REC-SVG-20010904/DTD/svg10.dtd">
<svg version="1.0" xmlns="http://www.w3.org/2000/svg"
 width="50.000000pt" height="24.940000pt" viewBox="0 0 728.000000 363.000000"
 preserveAspectRatio="xMidYMid meet">

<g transform="translate(0.000000,363.000000) scale(0.100000,-0.100000)"
fill="#353535" stroke="none">
<path d="M700 2720 l0 -910 260 0 260 0 0 243 0 243 76 85 c41 46 84 92 93
102 18 18 26 8 245 -315 l227 -333 -261 -5 -262 -5 -180 -340 c-98 -187 -186
-353 -195 -370 l-16 -30 -183 373 -182 372 -292 0 c-283 0 -292 -1 -287 -19 2
-11 158 -287 346 -614 l341 -594 0 -302 0 -301 260 0 260 0 0 304 0 303 343
601 342 601 98 1 c53 0 97 -4 97 -9 0 -4 -144 -383 -321 -842 -176 -459 -331
-862 -344 -897 l-24 -62 292 0 292 0 46 123 46 122 319 0 318 0 47 -120 46
-120 559 -2 559 -3 46 123 46 122 319 0 318 0 47 -120 46 -120 559 -2 559 -3
46 123 46 122 319 0 318 0 47 -120 46 -120 292 -3 c160 -1 291 -1 291 2 0 2
-149 390 -331 862 -182 473 -340 883 -351 912 l-19 52 -160 0 -159 0 0 900 0
900 -532 -2 -532 -3 -107 -508 c-59 -279 -109 -512 -111 -517 -2 -6 -81 224
-176 510 l-174 520 -283 0 -283 0 -173 -519 c-96 -286 -175 -518 -177 -516 -2
2 -51 225 -108 497 -57 271 -106 503 -109 516 l-5 22 -828 0 -828 0 -299 -352
-300 -351 -3 351 -2 352 -260 0 -260 0 0 -910z m1728 -377 l-3 -427 -328 478
c-292 426 -327 480 -315 496 7 10 155 178 328 374 l315 354 3 -424 c1 -233 1
-616 0 -851z m3422 -533 c66 0 120 -4 120 -9 0 -6 -490 -1285 -652 -1701 -7
-20 -11 -22 -18 -10 -6 11 -299 768 -667 1728 -4 9 -73 12 -297 12 l-292 0
-324 -843 c-385 -1002 -350 -915 -360 -897 -10 19 -660 1706 -660 1714 0 3 56
6 125 6 l125 0 2 853 3 852 224 -805 c123 -443 230 -826 238 -853 l14 -47 262
2 261 3 190 523 c104 287 191 520 194 518 2 -3 88 -238 191 -523 l187 -518
262 -3 261 -2 14 47 c8 27 117 420 243 875 l229 827 3 -874 2 -875 120 0z
m-3366 -962 l82 -213 -164 -3 c-91 -1 -167 0 -169 2 -3 2 33 101 79 219 45
119 85 214 86 212 2 -2 41 -99 86 -217z m1940 0 l82 -213 -164 -3 c-91 -1
-167 0 -169 2 -3 2 33 101 79 219 45 119 85 214 86 212 2 -2 41 -99 86 -217z
m1940 0 l82 -213 -164 -3 c-91 -1 -167 0 -169 2 -3 2 33 101 79 219 45 119 85
214 86 212 2 -2 41 -99 86 -217z"/>
</g>
</svg>
